<?xml version="1.0" standalone="no"?>
<!DOCTYPE svg PUBLIC "-//W3C//DTD SVG 20010904//EN"
 "http://www.w3.org/TR/2001/REC-SVG-20010904/DTD/svg10.dtd">
<svg version="1.0" xmlns="http://www.w3.org/2000/svg"
 width="1132.000000pt" height="1132.000000pt" viewBox="0 0 1132.000000 1132.000000"
 preserveAspectRatio="xMidYMid meet">
<metadata>
Created by potrace 1.14, written by Peter Selinger 2001-2017
</metadata>
<g transform="translate(0.000000,1132.000000) scale(0.100000,-0.100000)"
fill="#000000" stroke="none">
<path d="M0 5660 l0 -5660 5660 0 5660 0 0 5660 0 5660 -5660 0 -5660 0 0
-5660z m10140 30 l0 -1630 -4480 0 -4480 0 0 1630 0 1630 4480 0 4480 0 0
-1630z"/>
<path d="M4531 6639 c-327 -58 -528 -300 -482 -580 35 -218 169 -345 508 -485
278 -115 342 -172 331 -294 -6 -64 -39 -107 -107 -139 -53 -25 -64 -26 -206
-25 -193 0 -321 29 -527 119 -17 7 -18 -5 -18 -169 l0 -177 46 -19 c200 -86
628 -117 839 -61 115 31 197 73 261 133 109 102 146 194 146 358 0 276 -111
394 -552 580 -79 33 -163 72 -186 85 -122 71 -150 194 -64 276 60 58 122 74
270 73 135 -2 224 -20 342 -69 109 -46 98 -61 98 133 l0 170 -72 27 c-143 53
-221 66 -403 70 -93 2 -194 0 -224 -6z"/>
<path d="M1920 5715 l0 -895 190 0 190 0 2 494 3 494 229 -494 229 -495 95 3
96 3 233 500 233 500 0 -502 0 -503 190 0 190 0 0 895 0 895 -198 0 -198 0
-274 -595 c-238 -516 -276 -593 -285 -573 -5 13 -127 280 -271 593 l-262 570
-196 3 -196 2 0 -895z"/>
<path d="M6480 5715 l0 -895 200 0 200 0 0 370 0 370 315 0 315 0 0 155 0 155
-315 0 -315 0 0 205 0 205 425 0 425 0 0 165 0 165 -625 0 -625 0 0 -895z"/>
<path d="M7893 6563 c19 -27 160 -221 314 -433 153 -212 283 -391 287 -398 5
-8 -104 -166 -310 -450 -174 -240 -322 -443 -327 -449 -7 -10 38 -13 219 -13
l229 0 210 290 c116 159 213 290 216 290 3 0 99 -129 213 -286 115 -157 214
-288 220 -290 6 -2 109 -3 229 -2 l218 3 -326 448 -326 448 321 439 c176 242
320 442 320 445 0 3 -101 5 -224 5 l-225 0 -207 -285 c-115 -157 -211 -285
-214 -285 -3 0 -97 128 -210 285 l-205 284 -228 1 -229 0 35 -47z"/>
</g>
</svg>
